<?xml version="1.0" encoding="UTF-8"?>
<svg id="Capa_2" data-name="Capa 2" xmlns="http://www.w3.org/2000/svg" xmlns:xlink="http://www.w3.org/1999/xlink" viewBox="0 0 205.3 190.5">
  <defs>
    <style>
      .cls-1 {
        clip-path: url(#clippath);
      }

      .cls-2, .cls-3 {
        stroke-width: 0px;
      }

      .cls-2, .cls-4 {
        fill: none;
      }

      .cls-3 {
        fill: #000;
      }

      .cls-4 {
        stroke: #000;
        stroke-linecap: round;
        stroke-linejoin: round;
        stroke-width: 1.75px;
      }
    </style>
    <clipPath id="clippath">
      <polygon class="cls-2" points="189.22 .32 8.99 190.5 205.3 190.5 205.3 .32 189.22 .32"/>
    </clipPath>
  </defs>
  <g id="OBJECTS">
    <path class="cls-3" d="M35.49,161.58c.54.19,1.11.37,1.71.53-.04.04-.07.07-.11.11-1.43,1.45-2.86,2.89-4.32,4.34-.55-.05-1.08-.11-1.61-.17-21.75-2.32-31.16-9.61-31.16-19.86,0-9.65,8.11-13.51,14.87-15.44l11.58,5.21c-1.16,4.25-1.54,7.53-1.54,10.62,0,5.75,2.04,11.69,10.58,14.66Z"/>
    <path class="cls-3" d="M89.91,105.64c.46.29.9.59,1.34.91-7.73,8.1-15.48,16.16-23.26,24.18-.3-.04-.61-.08-.93-.11-.26-.04-.53-.06-.8-.09-.26-.03-.52-.05-.79-.07-.23-.03-.47-.04-.72-.06-.24-.02-.49-.04-.74-.06-.56-.04-1.14-.07-1.74-.1-.6-.03-1.21-.05-1.85-.07-1.27-.03-2.62-.05-4.04-.05h-18.73c-22.97,0-29.15-9.46-29.15-17.95,0-1.08.08-2.12.24-3.11.03-.23.07-.46.12-.68.05-.29.12-.58.19-.86.09-.38.19-.75.32-1.11.06-.22.13-.43.21-.64,0-.02.01-.03.02-.04.1-.28.2-.55.32-.82.09-.22.19-.44.29-.65.15-.34.31-.67.5-.99.14-.27.29-.53.45-.79.16-.27.33-.53.5-.79.18-.26.36-.52.55-.77.18-.26.38-.51.58-.77.4-.51.83-1.01,1.29-1.5.23-.25.47-.5.71-.74.24-.26.49-.5.75-.74,1.28-1.22,2.73-2.43,4.34-3.65.32-.25.65-.5.99-.74,1.01-.73,2.08-1.47,3.2-2.22.75-.5,1.53-1,2.33-1.52.42-.27.85-.54,1.28-.81.8-.5,1.63-1.01,2.49-1.53l4.02,1.18c-5.51,3.62-7.93,6.66-7.93,8.26,0,.16.02.32.06.47.01.04.02.08.04.12.08.21.22.41.42.6.08.07.17.14.28.21.6.39,1.59.69,3.15.91.22.03.45.06.7.09.18.02.37.04.56.06.28.03.58.05.9.07.61.05,1.29.08,2.02.11.36.01.74.03,1.13.03.94.03,1.96.04,3.09.04h19.7c1.57,0,3.14.03,4.7.09.48,0,.95.04,1.42.06.72.04,1.44.08,2.16.13.63.05,1.25.1,1.88.16,2.21.21,4.39.5,6.51.9.43.08.86.16,1.28.25,1.77.37,3.5.81,5.16,1.34.49.15.97.31,1.44.48.13.05.25.09.37.14.5.18.99.37,1.47.57.05.02.1.04.15.06.49.21.98.42,1.46.65.05.02.1.05.16.08.49.23.98.48,1.46.74.02.01.05.02.07.03.01.01.03.01.04.02.22.12.44.24.65.36.16.09.32.18.47.27.26.15.5.3.75.46Z"/>
    <path class="cls-3" d="M91.25,106.55c-7.73,8.1-15.48,16.16-23.26,24.18-.3-.04-.61-.08-.93-.11-.26-.04-.53-.06-.8-.09-.26-.03-.52-.05-.79-.07-.23-.03-.47-.04-.72-.06-.24-.02-.49-.04-.74-.06-.56-.04-1.14-.07-1.74-.1-.6-.03-1.21-.05-1.85-.07-1.27-.03-2.62-.05-4.04-.05h-18.73c-22.97,0-29.15-9.46-29.15-17.95,0-1.08.08-2.12.24-3.11.03-.23.07-.46.12-.68.05-.29.12-.58.19-.86.09-.38.19-.75.32-1.11.06-.22.13-.43.21-.64,0-.02.01-.03.02-.04.1-.28.2-.55.32-.82.09-.22.19-.44.29-.65.15-.34.31-.67.5-.99.14-.27.29-.53.45-.79.16-.27.33-.53.5-.79.18-.26.36-.52.55-.77.18-.26.38-.51.58-.77.4-.51.83-1.01,1.29-1.5.23-.25.47-.5.71-.74.24-.26.49-.5.75-.74,1.28-1.22,2.73-2.43,4.34-3.65.32-.25.65-.5.99-.74,1.01-.73,2.08-1.47,3.2-2.22.75-.5,1.53-1,2.33-1.52.42-.27.85-.54,1.28-.81.8-.5,1.63-1.01,2.49-1.53l.62-.52,3.4,1.7c-5.51,3.62-7.93,6.66-7.93,8.26,0,.16.02.32.06.47.01.04.02.08.04.12.08.21.22.41.42.6.08.07.17.14.28.21.6.39,1.59.69,3.15.91.22.03.45.06.7.09.18.02.37.04.56.06.28.03.58.05.9.07.61.05,1.29.08,2.02.11.36.01.74.03,1.13.03.94.03,1.96.04,3.09.04h19.7c1.57,0,3.14.03,4.7.09.48,0,.95.04,1.42.06.72.04,1.44.08,2.16.13.63.05,1.25.1,1.88.16,2.21.21,4.39.5,6.51.9.43.08.86.16,1.28.25,1.77.37,3.5.81,5.16,1.34.49.15.97.31,1.44.48.13.05.25.09.37.14.5.18.99.37,1.47.57.05.02.1.04.15.06.49.21.98.42,1.46.65.05.02.1.05.16.08.49.23.98.48,1.46.74.02.01.05.02.07.03.01.01.03.01.04.02.22.12.44.24.65.36.16.09.32.18.47.27.26.15.5.3.75.46.46.29.9.59,1.34.91Z"/>
    <path class="cls-3" d="M35.43,161.64c.54.22,1.1.41,1.66.58-1.52,1.54-3.05,3.08-4.6,4.62-.53-.04-1.06-.09-1.6-.15-11.71-1.24-25.68-4.78-29.73-14.37,6.18,6.32,18.57,9.88,26.54,4,2,2.45,4.69,4.16,7.73,5.32Z"/>
    <path class="cls-3" d="M91.25,106.55c-7.73,8.1-15.48,16.16-23.26,24.18-.3-.04-.61-.08-.93-.11-.26-.03-.53-.06-.8-.09-.26-.03-.52-.05-.79-.07-.23-.03-.47-.05-.72-.06-.24-.02-.49-.04-.74-.06-.56-.04-1.14-.07-1.74-.1-.6-.03-1.21-.05-1.85-.07-1.27-.03-2.62-.05-4.04-.05h-18.73c-22.97,0-29.15-9.46-29.15-17.95,0-1.08.08-2.12.24-3.11.03-.23.07-.46.12-.68.05-.29.12-.58.19-.86.09-.38.19-.75.32-1.11.06-.22.13-.43.21-.64,0-.02.01-.03.02-.04.1-.28.2-.55.32-.82.09-.22.19-.44.29-.65.15-.34.31-.67.5-.99.14-.27.29-.53.45-.79.16-.27.33-.53.5-.79.18-.26.36-.52.55-.77.18-.26.38-.51.58-.77.4-.51.83-1.01,1.29-1.5.23-.25.47-.5.71-.74.24-.26.49-.5.75-.74,1.28-1.23,2.73-2.44,4.34-3.65.32-.25.65-.5.99-.74,1.01-.73,2.07-1.47,3.2-2.22.75-.5,1.53-1,2.33-1.52.42-.27.85-.54,1.28-.81-1.05,2.39-1.38,5.15-1.45,7.86,0,.2.03.37.09.52.01.04.02.08.04.12.08.21.22.41.42.6.08.07.17.14.28.21.6.39,1.59.69,3.15.91.22.03.45.06.7.09.18.02.37.04.56.06.28.02.58.05.9.07.61.05,1.29.08,2.02.11.36.01.74.03,1.13.03.94.03,1.96.04,3.09.04h19.7c1.57,0,3.14.03,4.7.09.48,0,.95.04,1.42.06.72.04,1.44.08,2.16.13.63.05,1.25.1,1.88.16,2.21.21,4.39.5,6.51.9.43.08.86.16,1.28.25,1.77.37,3.5.81,5.16,1.34.49.15.97.31,1.44.48.13.05.25.09.37.14.5.18.99.37,1.47.57.05.02.1.04.15.06.49.21.98.42,1.46.65.05.02.1.05.16.08.49.23.98.48,1.46.74.02.01.05.02.07.03.01.01.03.01.04.02.22.12.44.24.65.36.16.09.32.18.47.27.26.15.5.3.75.46.46.29.9.59,1.34.91Z"/>
    <path class="cls-3" d="M104.64,14.29c0,8.88-5.79,12.74-12.16,12.74-5.79,0-10.81-3.47-11.2-10.04l5.41-3.28c.57-3.09-.58-5.99-4.64-5.99-2.51,0-8.3.78-8.3,12.75,0,2.7.63,7.69,1.35,11.58-1.63-.99-2.96-1.61-4.77-2.61-.5-2.69-.25-6.64-.25-8.97C70.08,4.67,81.05.02,88.96,0h.04c9.08,0,15.64,5.02,15.64,14.29Z"/>
    <path class="cls-3" d="M30.5,86.68c1.52.56,3.45,1.15,4.25,1.35,4.05.77,10.04,1.54,15.64,1.54,23.55,0,39.38-11,39.38-33.01,0-12.74-7.14-19.5-14.67-24.52-.3-.21-2.36-1.39-3.86-2.12-6.37-3.48-11.97-4.83-21.43-4.83-29.15,0-41.7,14.09-41.7,32.24,0,16.02,7.34,25.1,22.39,29.34ZM40.35,53.09c0-21.04,3.86-24.52,9.27-24.52s8.3,2.9,8.3,24.52v9.46c0,20.08-3.28,23.17-8.5,23.17-5.79,0-9.07-4.05-9.07-22.2v-10.42Z"/>
    <path class="cls-3" d="M104.64,14.29c0,8.88-5.79,12.74-12.16,12.74-5.79,0-10.81-3.47-11.2-10.04l5.41-3.28c3.47-2.1,4.51-9.24,2.27-13.71h.04c9.08,0,15.64,5.02,15.64,14.29Z"/>
    <g class="cls-1">
      <g>
        <path class="cls-4" d="M150.41,17.8c-39,0-54.44,15.44-54.44,36.87,0,26.26,22.01,31.47,43.82,31.47h19.69c10.23,0,12.36.97,12.36,2.7,0,1.6-2.42,4.65-7.93,8.26l4.03,1.19c14.01-8.53,21.67-14.84,21.67-25.47,0-8.49-6.18-17.95-29.15-17.95h-18.73c-20.27,0-24.52-3.67-24.52-12.93,0-12.16,10.81-20.46,31.28-20.46s24.71,8.49,24.71,16.6c0,3.09-.39,6.37-1.54,10.62l11.58,5.21c6.76-1.93,14.87-5.79,14.87-15.44,0-12.55-14.09-20.66-47.69-20.66Z"/>
        <path class="cls-4" d="M123,152.94c.72,3.89,1.35,8.88,1.35,11.58,0,11.97-5.79,12.74-8.3,12.74-4.05,0-5.21-2.9-4.63-5.99l5.41-3.28c-.39-6.56-5.41-10.04-11.2-10.04-6.37,0-12.16,3.86-12.16,12.74s6.56,14.29,15.64,14.29c7.92,0,18.92-4.63,18.92-20.46,0-2.34.26-6.29-.24-8.97-1.82-1-3.15-1.62-4.77-2.61Z"/>
        <path class="cls-4" d="M167.59,98.31c-1.52-.56-3.45-1.15-4.25-1.35-4.05-.77-10.04-1.54-15.64-1.54-23.55,0-39.38,11-39.38,33.01,0,12.74,7.14,19.5,14.67,24.52.3.21,2.36,1.39,3.86,2.12,6.37,3.48,11.97,4.83,21.43,4.83,29.15,0,41.7-14.09,41.7-32.24,0-16.02-7.34-25.1-22.39-29.34ZM157.75,131.9c0,21.04-3.86,24.52-9.27,24.52s-8.3-2.9-8.3-24.52v-9.46c0-20.08,3.28-23.17,8.5-23.17,5.79,0,9.07,4.05,9.07,22.2v10.42Z"/>
      </g>
    </g>
    <path class="cls-3" d="M188.09,1.51l-5.17,5.87c-29.89,33.35-60.53,66.53-91.67,99.17-7.73,8.1-15.48,16.16-23.26,24.18-10.22,10.53-20.49,21-30.79,31.38-.04.04-.07.07-.11.11-1.43,1.45-2.86,2.89-4.32,4.34-.09.09-.19.19-.28.28-5.42,5.46-10.87,10.9-16.33,16.32,4.89-5.5,9.8-10.99,14.73-16.47.09-.1.18-.2.27-.3,1.42-1.59,2.85-3.17,4.27-4.75.02-.02.04-.04.06-.06,9.43-10.45,18.94-20.86,28.52-31.24,7.95-8.63,15.95-17.23,23.99-25.81,31.06-33.08,62.68-65.69,94.51-97.54l5.58-5.48Z"/>
  </g>
</svg>